<?xml version="1.0" encoding="UTF-8" standalone="no"?>
<svg
   xmlns:dc="http://purl.org/dc/elements/1.1/"
   xmlns:cc="http://creativecommons.org/ns#"
   xmlns:rdf="http://www.w3.org/1999/02/22-rdf-syntax-ns#"
   xmlns:svg="http://www.w3.org/2000/svg"
   xmlns="http://www.w3.org/2000/svg"
   xmlns:sodipodi="http://sodipodi.sourceforge.net/DTD/sodipodi-0.dtd"
   xmlns:inkscape="http://www.inkscape.org/namespaces/inkscape"
   id="svg4163"
   width="22"
   height="22"
   version="1.1"
   viewBox="0 0 22 22"
   sodipodi:docname="media.svg"
   inkscape:version="0.92.4 5da689c313, 2019-01-14">
  <metadata
     id="metadata34">
    <rdf:RDF>
      <cc:Work
         rdf:about="">
        <dc:format>image/svg+xml</dc:format>
        <dc:type
           rdf:resource="http://purl.org/dc/dcmitype/StillImage" />
      </cc:Work>
    </rdf:RDF>
  </metadata>
  <defs
     id="defs32" />
  <sodipodi:namedview
     pagecolor="#ffffff"
     bordercolor="#666666"
     borderopacity="1"
     objecttolerance="10"
     gridtolerance="10"
     guidetolerance="10"
     inkscape:pageopacity="0"
     inkscape:pageshadow="2"
     inkscape:window-width="3000"
     inkscape:window-height="1950"
     id="namedview30"
     showgrid="false"
     inkscape:zoom="3.7926636"
     inkscape:cx="26.770649"
     inkscape:cy="-16.204493"
     inkscape:window-x="0"
     inkscape:window-y="50"
     inkscape:window-maximized="1"
     inkscape:current-layer="svg4163" />
  <g
     id="media-record"
     transform="translate(22,-1030.3622)">
    <rect
       id="rect4753"
       width="22"
       height="22"
       x="0"
       y="1030.36"
       style="opacity:0.00100002;fill:#000000;fill-opacity:1;stroke:none;stroke-width:2;stroke-linecap:round;stroke-linejoin:round;stroke-miterlimit:4;stroke-dasharray:none;stroke-opacity:1" />
    <path
       id="path4646-0"
       d="m 11,1035.3622 c -3.31104,0 -6,2.6888 -6,6 0,3.311 2.68896,6 6,6 3.31104,0 6,-2.689 6,-6 0,-3.3112 -2.68896,-6 -6,-6 z"
       style="opacity:1;fill:#5294e2;fill-opacity:1;enable-background:new"
       inkscape:connector-curvature="0" />
  </g>
  <g
     id="media-playback-stopped"
     transform="translate(44,-1030.3622)">
    <rect
       id="rect4761"
       width="22"
       height="22"
       x="0"
       y="1030.36"
       style="opacity:0.00100002;fill:#000000;fill-opacity:1;stroke:none;stroke-width:2;stroke-linecap:round;stroke-linejoin:round;stroke-miterlimit:4;stroke-dasharray:none;stroke-opacity:1" />
    <path
       id="path3807-1-1-5-8"
       d="m 5,1035.3622 v 12 h 12 v -12 z"
       style="opacity:1;fill:#d3dae3;enable-background:new"
       inkscape:connector-curvature="0" />
  </g>
  <g
     id="media-skip-forward"
     transform="translate(66,-1030.3622)">
    <rect
       id="rect4767"
       width="22"
       height="22"
       x="0"
       y="1030.36"
       style="opacity:0.00100002;fill:#000000;fill-opacity:1;stroke:none;stroke-width:2;stroke-linecap:round;stroke-linejoin:round;stroke-miterlimit:4;stroke-dasharray:none;stroke-opacity:1" />
    <path
       id="path5181"
       d="m 19,1037.3622 v 8 h -2 v -4 -4 z m -2,4 -7,4 v -4 -4 z m -7,0 -7,4 v -8 z"
       style="opacity:1;fill:#d3dae3;enable-background:new"
       inkscape:connector-curvature="0" />
  </g>
  <g
     id="media-skip-backward"
     transform="matrix(-1,0,0,1,110,-1030.3622)">
    <rect
       id="rect4775"
       width="22"
       height="22"
       x="0"
       y="1030.36"
       style="opacity:0.00100002;fill:#000000;fill-opacity:1;stroke:none;stroke-width:2;stroke-linecap:round;stroke-linejoin:round;stroke-miterlimit:4;stroke-dasharray:none;stroke-opacity:1" />
    <path
       id="path4777"
       d="m 19,1037.3622 v 8 h -2 v -4 -4 z m -2,4 -7,4 v -4 -4 z m -7,0 -7,4 v -8 z"
       style="opacity:1;fill:#d3dae3;enable-background:new"
       inkscape:connector-curvature="0" />
  </g>
  <g
     id="media-seek-forward"
     transform="translate(110,-1030.3622)">
    <rect
       id="rect4779"
       width="22"
       height="22"
       x="0"
       y="1030.36"
       style="opacity:0.00100002;fill:#000000;fill-opacity:1;stroke:none;stroke-width:2;stroke-linecap:round;stroke-linejoin:round;stroke-miterlimit:4;stroke-dasharray:none;stroke-opacity:1" />
    <path
       id="path3807-1-1-4-7-2"
       d="m 11.000002,1037.3622 6.999997,4 -6.999997,4 0,-4 0,-4 z m 0,4 -7.0000007,4 0,-8 7.0000007,4 z"
       style="opacity:1;fill:#d3dae3;enable-background:new" />
  </g>
  <g
     id="media-seek-backward"
     transform="matrix(-1,0,0,1,154,-1030.3622)">
    <rect
       id="rect4787"
       width="22"
       height="22"
       x="0"
       y="1030.36"
       style="opacity:0.00100002;fill:#000000;fill-opacity:1;stroke:none;stroke-width:2;stroke-linecap:round;stroke-linejoin:round;stroke-miterlimit:4;stroke-dasharray:none;stroke-opacity:1" />
    <path
       id="path4789"
       d="m 11.000002,1037.3622 6.999997,4 -6.999997,4 0,-4 0,-4 z m 0,4 -7.0000007,4 0,-8 7.0000007,4 z"
       style="opacity:1;fill:#d3dae3;enable-background:new" />
  </g>
  <g
     id="media-eject"
     transform="translate(-44,-1030.3622)">
    <rect
       id="rect4791"
       width="22"
       height="22"
       x="0"
       y="1030.36"
       style="opacity:0.00100002;fill:#000000;fill-opacity:1;stroke:none;stroke-width:2;stroke-linecap:round;stroke-linejoin:round;stroke-miterlimit:4;stroke-dasharray:none;stroke-opacity:1" />
    <path
       id="path696"
       d="m 11,1036.3622 -5,5 v 1 h 10 v -1 z m -5,8 v 2 h 10 v -2 z"
       display="block"
       style="color:#d3dae3;display:block;opacity:1;fill:#d3dae3;enable-background:accumulate"
       inkscape:connector-curvature="0" />
  </g>
  <g
     id="media-playback-pause"
     transform="translate(-22,-1030.3622)">
    <rect
       id="rect4797"
       width="22"
       height="22"
       x="0"
       y="1030.36"
       style="opacity:0.00100002;fill:#000000;fill-opacity:1;stroke:none;stroke-width:2;stroke-linecap:round;stroke-linejoin:round;stroke-miterlimit:4;stroke-dasharray:none;stroke-opacity:1" />
    <path
       id="path3807-1-1-5-8-6"
       d="m 5,1035.3622 v 12 h 4 v -12 z m 8,0 v 12 h 4 v -12 z"
       style="opacity:1;fill:#d3dae3;enable-background:new"
       inkscape:connector-curvature="0" />
  </g>
  <g
     id="media-playback-playing"
     transform="translate(0,-1030.3622)">
    <rect
       id="rect4755"
       width="22"
       height="22"
       x="0"
       y="1030.36"
       style="opacity:0.00100002;fill:#000000;fill-opacity:1;stroke:none;stroke-width:2;stroke-linecap:round;stroke-linejoin:round;stroke-miterlimit:4;stroke-dasharray:none;stroke-opacity:1" />
    <path
       id="path3807-1-1-9-38-4"
       d="m 6,1035.3622 v 12 l 11,-6 -9.8992,-5.3996 z"
       style="opacity:1;fill:#d3dae3;enable-background:new"
       inkscape:connector-curvature="0" />
  </g>
</svg>
