<?xml version="1.0" encoding="UTF-8" standalone="no"?>
<svg
   xmlns:dc="http://purl.org/dc/elements/1.1/"
   xmlns:cc="http://creativecommons.org/ns#"
   xmlns:rdf="http://www.w3.org/1999/02/22-rdf-syntax-ns#"
   xmlns:svg="http://www.w3.org/2000/svg"
   xmlns="http://www.w3.org/2000/svg"
   xmlns:xlink="http://www.w3.org/1999/xlink"
   xmlns:sodipodi="http://sodipodi.sourceforge.net/DTD/sodipodi-0.dtd"
   xmlns:inkscape="http://www.inkscape.org/namespaces/inkscape"
   id="svg3642"
   width="205"
   height="210.939"
   version="1"
   sodipodi:docname="panel-background.svg"
   inkscape:version="0.92.2 5c3e80d, 2017-08-06">
  <metadata
     id="metadata99">
    <rdf:RDF>
      <cc:Work
         rdf:about="">
        <dc:format>image/svg+xml</dc:format>
        <dc:type
           rdf:resource="http://purl.org/dc/dcmitype/StillImage" />
      </cc:Work>
    </rdf:RDF>
  </metadata>
  <sodipodi:namedview
     pagecolor="#ffffff"
     bordercolor="#666666"
     borderopacity="1"
     objecttolerance="10"
     gridtolerance="10"
     guidetolerance="10"
     inkscape:pageopacity="0"
     inkscape:pageshadow="2"
     inkscape:window-width="1920"
     inkscape:window-height="1050"
     id="namedview97"
     showgrid="false"
     inkscape:zoom="25.31571"
     inkscape:cx="57.630305"
     inkscape:cy="109.30428"
     inkscape:window-x="0"
     inkscape:window-y="30"
     inkscape:window-maximized="1"
     inkscape:current-layer="svg3642" />
  <defs
     id="defs3644">
    <radialGradient
       id="radialGradient4263"
       cx="984"
       cy="905.362"
       r="8.5"
       fx="984"
       fy="905.362"
       gradientTransform="matrix(-1.411767,-9.899721e-6,9.8996845e-6,-1.4117618,1527.1698,1378.1046)"
       gradientUnits="userSpaceOnUse"
       xlink:href="#linearGradient4465" />
    <linearGradient
       id="linearGradient4465">
      <stop
         id="stop4467"
         style="stop-color:#000000;stop-opacity:0.50980395"
         offset="0" />
      <stop
         id="stop4469"
         style="stop-color:#000000;stop-opacity:0;"
         offset="1" />
    </linearGradient>
    <linearGradient
       id="linearGradient4259"
       x1="83.6"
       x2="83.6"
       y1="-969.362"
       y2="-957.362"
       gradientTransform="matrix(0.71428571,0,0,1,-317.71429,1250.3622)"
       gradientUnits="userSpaceOnUse"
       xlink:href="#linearGradient4465" />
    <radialGradient
       id="radialGradient3382"
       cx="984"
       cy="905.362"
       r="8.5"
       fx="984"
       fy="905.362"
       gradientTransform="matrix(7.8257357e-6,1.411771,-1.4117668,7.8257123e-6,1466.1525,-1289.2507)"
       gradientUnits="userSpaceOnUse"
       xlink:href="#linearGradient4465" />
    <linearGradient
       id="linearGradient4452"
       x1="-260"
       x2="-260"
       y1="281"
       y2="293"
       gradientUnits="userSpaceOnUse"
       xlink:href="#linearGradient4465" />
    <radialGradient
       id="radialGradient4255"
       cx="982.909"
       cy="906.453"
       r="8.5"
       fx="982.909"
       fy="906.453"
       gradientTransform="matrix(1.4117577,5.5406049e-6,-5.5406032e-6,1.4117573,-1199.6245,-1229.7582)"
       gradientUnits="userSpaceOnUse"
       xlink:href="#linearGradient4465" />
    <radialGradient
       id="radialGradient4275"
       cx="984"
       cy="905.362"
       r="8.5"
       fx="984"
       fy="905.362"
       gradientTransform="matrix(-1.6187099e-5,-1.4117565,1.4117775,-1.618734e-5,-1140.1539,1439.1221)"
       gradientUnits="userSpaceOnUse"
       xlink:href="#linearGradient4465" />
    <linearGradient
       id="linearGradient4385"
       x1="83.6"
       x2="83.6"
       y1="-969.362"
       y2="-957.362"
       gradientTransform="matrix(0.71428571,0,0,1,-317.71429,1250.3622)"
       gradientUnits="userSpaceOnUse"
       xlink:href="#linearGradient4465" />
    <linearGradient
       id="linearGradient4387"
       x1="83.6"
       x2="83.6"
       y1="-969.362"
       y2="-957.362"
       gradientTransform="matrix(0.71428571,0,0,1,-317.71429,1250.3622)"
       gradientUnits="userSpaceOnUse"
       xlink:href="#linearGradient4465" />
  </defs>
  <path
     inkscape:connector-curvature="0"
     d="m 121,49.93904 h 10 v -2 c 0,-2.77 2.23,-5 5,-5 h 2 v -10 h -17 z"
     style="opacity:1;fill:url(#radialGradient4275);fill-opacity:1;stroke:none"
     id="shadow-topleft" />
  <g
     transform="matrix(-1,0,0,1,419,-207.06096)"
     id="shadow-left">
    <rect
       transform="rotate(-90)"
       y="288"
       x="-307"
       height="10"
       width="50"
       style="opacity:1;fill:url(#linearGradient4385);fill-opacity:1;stroke:none"
       id="rect4267" />
    <rect
       transform="translate(3,2)"
       y="257"
       x="278"
       height="1"
       width="7"
       style="fill:#3498db;fill-opacity:0"
       id="rect4269" />
  </g>
  <g
     transform="matrix(0,-1,-1,0,445,330.93904)"
     id="shadow-top">
    <rect
       transform="rotate(-90)"
       y="288"
       x="-307"
       height="10"
       width="50"
       style="opacity:1;fill:url(#linearGradient4259);fill-opacity:1;stroke:none"
       id="rect4279" />
    <rect
       transform="translate(3,2)"
       y="257"
       x="278"
       height="1"
       width="7"
       style="fill:#3498db;fill-opacity:0"
       id="rect4281" />
  </g>
  <rect
     y="51.939091"
     x="7"
     height="50"
     width="50"
     style="opacity:0.95;fill:#252a35;fill-opacity:1;stroke:none"
     id="center" />
  <g
     id="topleft"
     transform="translate(-183,-207.06091)">
    <path
       inkscape:connector-curvature="0"
       d="m 190.00001,251.99982 v 7 h -7 v -2 c 0,-2.77 2.23,-5 5,-5 z"
       style="opacity:0.95;fill:#252a35;fill-opacity:1;stroke:none"
       id="path4428" />
    <path
       inkscape:connector-curvature="0"
       d="m 188,251.99988 c -2.77,0 -5,2.23 -5,5 v 2 h 1 v -1 c 0,-3 2,-5 5,-5 h 1 v -1 z"
       style="opacity:0.2;fill:#000000;fill-opacity:1;stroke:none"
       id="path4497" />
  </g>
  <g
     id="left"
     transform="translate(-183,-207.06091)">
    <path
       inkscape:connector-curvature="0"
       d="m 183.00002,258.99981 v 50 l 7,10e-6 v -50 z"
       style="opacity:0.95;fill:#252a35;fill-opacity:1;stroke:none"
       id="path4418" />
    <path
       inkscape:connector-curvature="0"
       d="m 183,258.99988 v 50 h 1 v -50 z"
       style="opacity:0.2;fill:#000000;fill-opacity:1;stroke:none"
       id="path4502" />
  </g>
  <path
     id="right"
     style="opacity:0.95;fill:#252a35;fill-opacity:1;stroke:none"
     d="m 64,51.93891 v 50 l -7,10e-6 v -50 z"
     inkscape:connector-curvature="0"
     inkscape:label="#path4396" />
  <g
     id="bottomleft"
     transform="translate(-183,-207.06091)">
    <path
       inkscape:connector-curvature="0"
       d="m 190.00001,315.99991 v -7 h -7 v 2 c 0,2.77 2.23,5 5,5 z"
       style="opacity:0.95;fill:#252a35;fill-opacity:1;stroke:none"
       id="path4414" />
    <path
       inkscape:connector-curvature="0"
       d="m 183,310.99988 c 0,2.77 2.23,5 5,5 h 2 v -1 h -1 c -3,0 -5,-2 -5,-5 v -1 h -1 z"
       style="opacity:0.2;fill:#000000;fill-opacity:1;stroke:none"
       id="path4509" />
  </g>
  <g
     id="bottom"
     transform="translate(-183,-207.06091)">
    <path
       inkscape:connector-curvature="0"
       d="M 189.99998,315.99995 H 240 v -7 h -50.00001 z"
       style="opacity:0.95;fill:#252a35;fill-opacity:1;stroke:none"
       id="path4404" />
    <path
       inkscape:connector-curvature="0"
       d="m 190,315.99988 h 50 v -1 h -50 z"
       style="opacity:0.2;fill:#000000;fill-opacity:1;stroke:none"
       id="path4511" />
  </g>
  <path
     id="bottomright"
     style="opacity:0.95;fill:#252a35;fill-opacity:1;stroke:none"
     d="m 57,108.939 v -7 h 7 v 2 c 0,2.77 -2.23,5 -5,5 z"
     inkscape:connector-curvature="0"
     inkscape:label="#path4392" />
  <path
     id="topright"
     style="opacity:0.95;fill:#252a35;fill-opacity:1;stroke:none"
     d="m 57,44.93891 v 7 h 7 v -2 c 0,-2.77 -2.23,-5 -5,-5 z"
     inkscape:connector-curvature="0"
     inkscape:label="#path4378" />
  <g
     id="top"
     transform="translate(-183,-207.06091)">
    <path
       inkscape:connector-curvature="0"
       d="M 189.99998,251.99982 H 240 v 7 h -50.00001 z"
       style="opacity:0.95;fill:#252a35;fill-opacity:1;stroke:none"
       id="path4382" />
    <path
       inkscape:connector-curvature="0"
       d="m 190,251.99988 v 1 h 50 v -1 z"
       style="opacity:0.2;fill:#000000;fill-opacity:1;stroke:none"
       id="path4492" />
  </g>
  <g
     transform="matrix(0.31570315,0,0,0.31570315,-251.27186,5.27591)"
     style="fill:#000000;fill-opacity:0"
     id="shadow-center">
    <path
       inkscape:connector-curvature="0"
       d="m -6.0000004,-7.998957 v 62 H 56 v -62 z"
       style="fill:#000000;fill-opacity:0;stroke:none"
       id="path3642" />
  </g>
  <rect
     y="72.939087"
     x="195"
     height="4"
     width="10"
     style="opacity:1;fill:#ff00ff;fill-opacity:1;stroke:none"
     id="shadow-hint-right-margin" />
  <rect
     y="106.93909"
     x="161"
     height="10"
     width="4"
     style="opacity:1;fill:#ff00ff;fill-opacity:1;stroke:none"
     id="shadow-hint-bottom-margin" />
  <rect
     y="72.939087"
     x="121"
     height="4"
     width="10"
     style="opacity:1;fill:#ff00ff;fill-opacity:1;stroke:none"
     id="shadow-hint-left-margin" />
  <rect
     y="32.939091"
     x="162"
     height="10"
     width="4"
     style="opacity:1;fill:#ff00ff;fill-opacity:1;stroke:none"
     id="shadow-hint-top-margin" />
  <rect
     y="44.939091"
     x="29"
     height="2"
     width="4"
     style="opacity:1;fill:#ff00ff;fill-opacity:1;stroke:none"
     id="hint-top-margin" />
  <rect
     y="106.93909"
     x="29"
     height="2"
     width="4"
     style="opacity:1;fill:#ff00ff;fill-opacity:1;stroke:none"
     id="hint-bottom-margin" />
  <rect
     y="72.939087"
     x="0"
     height="4"
     width="2"
     style="opacity:1;fill:#ff00ff;fill-opacity:1;stroke:none"
     id="hint-left-margin" />
  <rect
     y="72.939087"
     x="62"
     height="4"
     width="2"
     style="opacity:1;fill:#ff00ff;fill-opacity:1;stroke:none"
     id="hint-right-margin" />
  <rect
     y="143.93909"
     x="71"
     height="50"
     width="50"
     style="fill:#000000;fill-opacity:1;stroke:none"
     id="mask-center" />
  <g
     id="mask-topright"
     transform="translate(-183,-207.06091)">
    <path
       inkscape:connector-curvature="0"
       d="m 304.00003,343.99992 v 7 h 7 v -2 c 0,-2.77 -2.23,-5 -5,-5 z"
       style="fill:#000000;fill-opacity:1;stroke:none"
       id="path4120" />
    <rect
       y="343"
       x="308"
       height="4"
       width="4"
       style="opacity:1;fill:#ffffff;fill-opacity:0;stroke:none;stroke-width:0.5;stroke-miterlimit:4;stroke-dasharray:none;stroke-opacity:1"
       id="rect4438" />
  </g>
  <g
     id="mask-top"
     transform="translate(-183,-207.06091)">
    <path
       inkscape:connector-curvature="0"
       d="m 253.99999,344 h 50 l 10e-6,7 h -50 z"
       style="fill:#000000;fill-opacity:1;stroke:none"
       id="path4128" />
    <path
       inkscape:connector-curvature="0"
       d="m 253.99999,349.99992 h 50 v 1 h -50 z"
       style="fill:#ffffff;fill-opacity:0;stroke:none"
       id="path4134" />
    <rect
       y="343"
       x="300"
       height="1"
       width="1"
       style="opacity:1;fill:#ffffff;fill-opacity:0;stroke:none;stroke-width:0.5;stroke-miterlimit:4;stroke-dasharray:none;stroke-opacity:1"
       id="rect4449" />
  </g>
  <g
     transform="matrix(1,0,0,-1,-183,544.93901)"
     id="mask-bottomright">
    <path
       inkscape:connector-curvature="0"
       d="m 304.00003,343.99992 v 7 h 7 v -2 c 0,-2.77 -2.23,-5 -5,-5 z"
       style="fill:#000000;fill-opacity:1;stroke:none"
       id="path4458" />
    <rect
       y="343"
       x="308"
       height="4"
       width="4"
       style="opacity:1;fill:#ffffff;fill-opacity:0;stroke:none;stroke-width:0.5;stroke-miterlimit:4;stroke-dasharray:none;stroke-opacity:1"
       id="rect4460" />
  </g>
  <g
     transform="matrix(1,0,0,-1,-183,544.93909)"
     id="mask-bottom">
    <path
       inkscape:connector-curvature="0"
       d="m 253.99999,344 h 50 l 10e-6,7 h -50 z"
       style="fill:#000000;fill-opacity:1;stroke:none"
       id="path4464" />
    <path
       inkscape:connector-curvature="0"
       d="m 253.99999,349.99992 h 50 v 1 h -50 z"
       style="fill:#ffffff;fill-opacity:0;stroke:none"
       id="path4466" />
    <rect
       y="343"
       x="300"
       height="1"
       width="1"
       style="opacity:1;fill:#ffffff;fill-opacity:0;stroke:none;stroke-width:0.5;stroke-miterlimit:4;stroke-dasharray:none;stroke-opacity:1"
       id="rect4468" />
  </g>
  <g
     transform="rotate(180,187.50002,272.4695)"
     id="mask-bottomleft">
    <path
       inkscape:connector-curvature="0"
       d="m 304.00003,343.99992 v 7 h 7 v -2 c 0,-2.77 -2.23,-5 -5,-5 z"
       style="fill:#000000;fill-opacity:1;stroke:none"
       id="path4472" />
    <rect
       y="343"
       x="308"
       height="4"
       width="4"
       style="opacity:1;fill:#ffffff;fill-opacity:0;stroke:none;stroke-width:0.5;stroke-miterlimit:4;stroke-dasharray:none;stroke-opacity:1"
       id="rect4474" />
  </g>
  <g
     transform="rotate(90,291.03045,180.96956)"
     id="mask-right">
    <path
       inkscape:connector-curvature="0"
       d="m 253.99999,344 h 50 l 10e-6,7 h -50 z"
       style="fill:#000000;fill-opacity:1;stroke:none"
       id="path4478" />
    <path
       inkscape:connector-curvature="0"
       d="m 253.99999,349.99992 h 50 v 1 h -50 z"
       style="fill:#ffffff;fill-opacity:0;stroke:none"
       id="path4480" />
    <rect
       y="343"
       x="300"
       height="1"
       width="1"
       style="opacity:1;fill:#ffffff;fill-opacity:0;stroke:none;stroke-width:0.5;stroke-miterlimit:4;stroke-dasharray:none;stroke-opacity:1"
       id="rect4482" />
  </g>
  <g
     transform="matrix(0,1,1,0,-280,-110.06091)"
     id="mask-left">
    <path
       inkscape:connector-curvature="0"
       d="m 253.99999,344 h 50 l 10e-6,7 h -50 z"
       style="fill:#000000;fill-opacity:1;stroke:none"
       id="path4486" />
    <path
       inkscape:connector-curvature="0"
       d="m 253.99999,349.99992 h 50 v 1 h -50 z"
       style="fill:#ffffff;fill-opacity:0;stroke:none"
       id="path4488" />
    <rect
       y="343"
       x="300"
       height="1"
       width="1"
       style="opacity:1;fill:#ffffff;fill-opacity:0;stroke:none;stroke-width:0.5;stroke-miterlimit:4;stroke-dasharray:none;stroke-opacity:1"
       id="rect4490" />
  </g>
  <g
     transform="matrix(-1,0,0,1,375.00003,-207.06091)"
     id="mask-topleft">
    <path
       inkscape:connector-curvature="0"
       d="m 304.00003,343.99992 v 7 h 7 v -2 c 0,-2.77 -2.23,-5 -5,-5 z"
       style="fill:#000000;fill-opacity:1;stroke:none"
       id="path4494" />
    <rect
       y="343"
       x="308"
       height="4"
       width="4"
       style="opacity:1;fill:#ffffff;fill-opacity:0;stroke:none;stroke-width:0.5;stroke-miterlimit:4;stroke-dasharray:none;stroke-opacity:1"
       id="rect4496" />
  </g>
  <rect
     y="-0.060910001"
     x="0"
     height="5"
     width="5"
     style="opacity:1;fill:#ff6600;fill-opacity:1;stroke:none"
     id="hint-tile-center" />
</svg>
